<svg fill="#ddd9c2" xmlns="http://www.w3.org/2000/svg" viewBox="0 0 64 64" x="0px" y="0px"><g><polygon points="45.586 41 40.414 41 43 43.586 45.586 41"/><polygon points="39 42.414 39 47.586 41.586 45 39 42.414"/><path d="M30,33v3a.982.982,0,0,1-.469.826l.087.174h2.764l-2-4Z"/><path d="M25,22c-.2,0-.73.29-1.482,1.376a8.729,8.729,0,0,0-1.518,5V35h2V30h2v5h2V28.379a8.729,8.729,0,0,0-1.518-5C25.73,22.29,25.2,22,25,22Zm1.553,5.9L25,27.118l-1.553.777-.894-1.79,2-1a1,1,0,0,1,.894,0l2,1Z"/><path d="M20,36V33h-.382l-2,4h2.764l.087-.174A.982.982,0,0,1,20,36Z"/><polygon points="24.721 38 25.279 38 25.613 37 24.387 37 24.721 38"/><path d="M51.586,10,47,5.414V9a1,1,0,0,0,1,1Z"/><polygon points="40.414 49 45.586 49 43 46.414 40.414 49"/><path d="M53,12H48a3,3,0,0,1-3-3V4H14a3,3,0,0,0-3,3V57a3,3,0,0,0,3,3H50a3,3,0,0,0,3-3ZM37,21h2v2H37ZM19,8h6v2H19ZM15,8h2v2H15Zm0,4H25v2H15ZM27.871,47.871a3,3,0,0,1-5.742,0A3,3,0,0,1,23,42v2a1,1,0,0,0,0,2,1,1,0,0,1,1,1,1,1,0,0,0,2,0,1,1,0,0,1,1-1,1,1,0,0,0,0-2V42a3,3,0,0,1,.871,5.871Zm6.212-9.819a1.986,1.986,0,0,1-1.7.948H29a1,1,0,0,1-.895-.553l-.52-1.041-.637,1.91A1,1,0,0,1,26,40H24a1,1,0,0,1-.948-.684l-.637-1.91-.52,1.041A1,1,0,0,1,21,39H17.618a2,2,0,0,1-1.789-2.894l2.276-4.553A1,1,0,0,1,19,31h1V28.379a10.729,10.729,0,0,1,1.873-6.142q3.126-4.516,6.254,0A10.729,10.729,0,0,1,30,28.379V31h1a1,1,0,0,1,.895.553L34.171,36.1A1.99,1.99,0,0,1,34.083,38.052ZM49,50a1,1,0,0,1-1,1H38a1,1,0,0,1-1-1V40a1,1,0,0,1,1-1H48a1,1,0,0,1,1,1Zm0-15H37V33H49Zm0-4H37V29H49Zm0-4H37V25H49Zm0-4H41V21h8Z"/><polygon points="47 47.586 47 42.414 44.414 45 47 47.586"/></g></svg>